<?xml version="1.0" encoding="UTF-8" standalone="no"?>
<!-- Created with Inkscape (http://www.inkscape.org/) -->

<svg
   xmlns:dc="http://purl.org/dc/elements/1.1/"
   xmlns:cc="http://creativecommons.org/ns#"
   xmlns:rdf="http://www.w3.org/1999/02/22-rdf-syntax-ns#"
   xmlns:svg="http://www.w3.org/2000/svg"
   xmlns="http://www.w3.org/2000/svg"
   xmlns:sodipodi="http://sodipodi.sourceforge.net/DTD/sodipodi-0.dtd"
   xmlns:inkscape="http://www.inkscape.org/namespaces/inkscape"
   width="240mm"
   height="120mm"
   viewBox="0 0 240 120"
   version="1.1"
   id="svg8"
   inkscape:version="0.92.5 (2060ec1f9f, 2020-04-08)"
   sodipodi:docname="integral_recursion.svg">
  <defs
     id="defs2" />
  <sodipodi:namedview
     id="base"
     pagecolor="#ffffff"
     bordercolor="#666666"
     borderopacity="1.0"
     inkscape:pageopacity="0.0"
     inkscape:pageshadow="2"
     inkscape:zoom="1.406257"
     inkscape:cx="438.56169"
     inkscape:cy="241.43798"
     inkscape:document-units="mm"
     inkscape:current-layer="layer1"
     showgrid="false"
     showborder="true"
     width="200mm"
     showguides="true"
     inkscape:guide-bbox="true"
     inkscape:window-width="1920"
     inkscape:window-height="1016"
     inkscape:window-x="1920"
     inkscape:window-y="27"
     inkscape:window-maximized="1">
    <inkscape:grid
       type="xygrid"
       id="grid815"
       units="mm"
       spacingx="10"
       spacingy="10"
       empspacing="4"
       dotted="false" />
  </sodipodi:namedview>
  <metadata
     id="metadata5">
    <rdf:RDF>
      <cc:Work
         rdf:about="">
        <dc:format>image/svg+xml</dc:format>
        <dc:type
           rdf:resource="http://purl.org/dc/dcmitype/StillImage" />
        <dc:title></dc:title>
      </cc:Work>
    </rdf:RDF>
  </metadata>
  <g
     inkscape:label="Layer 1"
     inkscape:groupmode="layer"
     id="layer1"
     transform="translate(0,-177)">
    <path
       style="opacity:1;fill:#782121;stroke-width:0.79999995;stroke-miterlimit:4;stroke-dasharray:none;stroke-dashoffset:0;paint-order:markers stroke fill"
       id="path15"
       d="m 51.28692,200.83186 c -0.28665,1.08128 -0.48818,2.1872 -0.666123,3.29368 -0.141921,0.93282 -0.262833,1.86895 -0.397722,2.8028 -0.14926,0.9045 -0.208475,1.8207 -0.314783,2.73116 -0.09916,0.7942 -0.116782,1.59508 -0.228394,2.38737 -0.117244,0.74931 -0.153269,1.50789 -0.17656,2.26571 0.0023,0.88891 -0.144814,1.76781 -0.153391,2.65578 0.03181,0.81384 0.08658,1.626 0.111522,2.44022 0.0208,0.98328 0.02039,1.9669 0.02258,2.95036 0.06349,0.94199 0.144689,1.88136 0.1844,2.82509 0.03851,1.05473 0.03889,2.11047 0.04298,3.16582 0.0023,1.09747 -0.0027,2.19494 -0.002,3.29238 -0.0013,1.16795 -0.0038,2.33587 -0.0028,3.50382 0.0018,1.16163 -7.07e-4,2.32325 0.0013,3.48489 -0.0025,1.18273 -0.0021,2.3655 -9.64e-4,3.54825 0.0018,1.13853 6.11e-4,2.27708 0.0012,3.41562 0.03156,1.15637 -0.02473,2.30824 -0.101153,3.46108 -0.07449,1.19879 -0.0908,2.39915 -0.180106,3.59692 -0.06127,1.0147 -0.142684,2.0258 -0.251072,3.03601 -0.06592,0.91699 -0.18883,1.82742 -0.272797,2.7425 -0.02905,0.78094 -0.128154,1.55385 -0.220234,2.32829 -0.06242,0.5251 -0.06461,1.05347 -0.147613,1.57567 -0.073,0.45684 -0.130711,0.91352 -0.24351,1.36189 -0.06261,0.1859 -0.08493,0.38333 -0.136177,0.57217 -0.01248,0.0945 -0.0143,0.19047 -0.01456,0.28585 -0.0019,0.208 -0.0016,0.41603 -0.0037,0.62406 -6.42e-4,0.31825 -0.0015,0.63649 -0.0017,0.95474 -7.72e-4,0.28588 -6.11e-4,0.57179 0.0053,0.8576 0.03052,1.27698 1.511373,-0.53079 -3.153684,1.36283 0,0 3.153027,-1.37995 3.153027,-1.37995 v 0 c -4.661024,2.18785 -3.18326,2.67701 -3.153678,1.39764 0.0059,-0.28738 0.0061,-0.57482 0.0053,-0.86225 -3.53e-4,-0.31755 -10e-4,-0.63508 -0.0021,-0.95262 -0.0024,-0.20586 -0.0026,-0.41175 -0.0068,-0.61759 -0.0015,-0.10891 -0.0053,-0.21758 6.75e-4,-0.32643 0.0015,-0.21808 0.09115,-0.42608 0.129108,-0.6386 0.139423,-0.43417 0.210311,-0.87381 0.266622,-1.3278 0.09616,-0.51773 0.112044,-1.03779 0.16349,-1.56249 0.09684,-0.774 0.225887,-1.54294 0.245733,-2.32546 0.07726,-0.91793 0.206342,-1.82922 0.267689,-2.74865 0.111437,-1.00948 0.216212,-2.01722 0.271234,-3.03249 0.09866,-1.19621 0.121962,-2.39463 0.18496,-3.59338 0.07182,-1.14523 0.142259,-2.28829 0.105792,-3.43714 5.46e-4,-1.13888 -5.79e-4,-2.27777 0.0012,-3.41664 0.0012,-1.18247 0.0016,-2.36493 -9.97e-4,-3.54737 0.002,-1.16207 -4.51e-4,-2.32414 0.0015,-3.4862 9.01e-4,-1.16732 -0.0012,-2.33463 -0.0016,-3.50196 0.0017,-1.09655 -0.0012,-2.19309 -0.0015,-3.28965 -0.0012,-1.0503 -0.0046,-2.10083 -0.04092,-3.15058 -0.04053,-0.94845 -0.123976,-1.8927 -0.189501,-2.83933 -10e-4,-0.97845 -0.0023,-1.95702 -0.02981,-2.93513 -0.02616,-0.81773 -0.0753,-1.63395 -0.117631,-2.45085 -0.0059,-0.89229 0.155924,-1.77244 0.152262,-2.66498 0.01519,-0.76943 0.03735,-1.54007 0.149149,-2.30207 0.117569,-0.7918 0.16989,-1.58836 0.250371,-2.38556 0.106701,-0.91338 0.165574,-1.83163 0.304737,-2.74056 0.148165,-0.936 0.257906,-1.87927 0.416678,-2.81376 0.173582,-1.10359 0.382605,-2.20253 0.61682,-3.29321 0,0 3.158276,-1.2975 3.158276,-1.2975 z"
       inkscape:connector-curvature="0" />
    <path
       style="opacity:1;fill:#782121;stroke-width:0.79999995;stroke-miterlimit:4;stroke-dasharray:none;stroke-dashoffset:0;paint-order:markers stroke fill"
       id="path17"
       d="m 48.473037,265.90769 c 0.842597,-0.0712 1.682288,-0.13334 2.520507,-0.24818 0.884034,-0.12062 1.775398,-0.15258 2.665668,-0.16884 1.15366,0.0236 2.30275,-0.0559 3.453875,-0.12191 1.427136,-0.0721 2.855792,-0.1003 4.284346,-0.11523 1.282638,-0.0511 2.561003,0.0702 3.84047,0.14346 1.254265,0.0244 2.503373,0.11716 3.754493,0.20621 1.272592,0.0898 2.540103,0.23224 3.814432,0.30153 1.245648,0.0582 2.49275,0.0631 3.739387,0.0655 1.142273,10e-4 2.284542,-0.002 3.426817,-0.002 1.0384,-0.0444 2.070831,0.0773 3.10511,0.15165 0.955585,0.0642 1.913277,0.0763 2.870469,0.0838 1.020315,-0.0347 2.033591,0.0398 3.049565,0.12396 1.020708,0.17684 2.050148,0.26684 3.082382,0.31935 1.073695,0.0436 2.14836,0.0435 3.222664,0.0465 1.100716,6.7e-4 2.201432,-6.8e-4 3.302149,-0.002 1.051616,-6.8e-4 2.103249,-10e-4 3.154869,-0.002 1.04464,0.001 2.08927,3.5e-4 3.13392,0.002 1.15455,0.001 2.3091,0.002 3.46365,0.001 1.06286,-0.002 2.12572,-0.002 3.18858,-0.001 1.05275,0.0148 2.10122,0.008 3.15068,-0.0806 1.01324,-0.0116 2.02615,0.0329 3.0391,0.0539 1.04101,0.0203 2.08226,0.0241 3.12344,0.0254 1.13923,0.001 2.27844,0.003 3.41768,0.005 1.28169,0.0396 2.55914,-0.0797 3.83769,-0.15405 1.06415,-0.0746 2.12467,-0.0971 3.18772,-0.0116 0.75758,0.065 1.51313,0.0906 2.2623,0.22821 0.32243,0.0657 0.64694,0.12074 0.97266,0.16496 0.016,0.002 0.032,0.003 0.048,0.007 0,0 -2.94292,1.84123 -2.94292,1.84123 v 0 c -0.0152,-0.002 -0.0304,-0.007 -0.0456,-0.009 -0.31445,-0.0626 -0.62903,-0.12409 -0.94352,-0.18617 -0.73587,-0.12087 -1.48165,-0.13804 -2.2223,-0.21441 -1.04932,-0.069 -2.09815,-0.0239 -3.14734,0.0366 -1.28154,0.0745 -2.56246,0.17324 -3.84708,0.13751 -1.14389,0.002 -2.28779,0.005 -3.43168,0.002 -1.04327,-0.003 -2.08657,-0.008 -3.12965,-0.0293 -1.00624,-0.0242 -2.01373,-0.0724 -3.01991,-0.0274 -1.05282,0.0738 -2.10608,0.0618 -3.1608,0.057 -1.06134,10e-4 -2.12267,10e-4 -3.18402,-0.001 -1.15577,-10e-4 -2.31156,-6.7e-4 -3.46732,0.001 -1.04673,10e-4 -2.093451,10e-4 -3.140186,0.002 -1.049515,-10e-4 -2.099042,-10e-4 -3.148569,-10e-4 -1.10079,3e-4 -2.201568,0.002 -3.302356,10e-4 -1.077085,-0.002 -2.154605,-0.007 -3.230693,-0.0619 -1.036508,-0.0609 -2.066847,-0.17562 -3.095645,-0.32189 -1.0112,-0.0842 -2.021646,-0.12574 -3.036408,-0.10368 -0.961572,-0.01 -1.923691,-0.025 -2.883042,-0.1015 -1.026091,-0.0804 -2.05161,-0.17606 -3.081982,-0.13686 -1.140819,10e-4 -2.281641,10e-4 -3.422461,-0.002 -1.248595,-0.008 -2.497811,-0.0155 -3.745066,-0.0832 -1.273493,-0.081 -2.541653,-0.22332 -3.814845,-0.30604 -1.251168,-0.0896 -2.502027,-0.15966 -3.755549,-0.20074 -1.272509,-0.0771 -2.544812,-0.17851 -3.820593,-0.12905 -1.426099,0.0164 -2.852619,0.0403 -4.276634,0.12927 -1.161439,0.0725 -2.321868,0.1352 -3.485848,0.1293 -0.886891,0.029 -1.773907,0.0745 -2.653788,0.20282 -0.847383,0.10717 -1.700106,0.14659 -2.546935,0.26007 0,0 2.870083,-1.90481 2.870083,-1.90481 z"
       inkscape:connector-curvature="0" />
    <path
       style="opacity:1;fill:#782121;stroke-width:0.79999995;stroke-miterlimit:4;stroke-dasharray:none;stroke-dashoffset:0;paint-order:markers stroke fill"
       id="path19"
       d="m 50.296248,247.65172 c 0.953622,0.12807 1.91567,0.1582 2.875623,0.18517 1.223325,0.067 2.442416,-0.0195 3.663245,-0.0881 1.409404,-0.15832 2.822397,-0.26201 4.238455,-0.31983 1.456022,-0.0596 2.913492,-0.0166 4.369117,-0.0794 1.733703,-0.099 3.469182,-0.14733 5.205028,-0.17591 1.934928,0.0573 3.868972,0.13681 5.804348,0.17844 1.971632,-0.001 3.940124,0.0746 5.909703,0.15845 1.87291,0.11882 3.747354,0.0278 5.620242,-0.0352 1.740986,-0.096 3.480114,-0.0395 5.220204,0.0341 1.660139,0.14755 3.32198,0.25656 4.987051,0.31375 1.591379,0.0453 3.183486,0.0471 4.775316,0.0478 1.56384,-0.0365 3.12421,0.0821 4.68572,0.15107 1.53633,-0.008 3.07134,-0.083 4.60724,-0.11716 1.45101,-0.0298 2.9023,-0.0357 4.35354,-0.0394 1.33715,-0.001 2.67428,-0.001 4.01143,-0.003 1.16572,-0.001 2.32786,0.12191 3.492,0.18044 0.87623,0.075 1.76249,-0.0137 2.6355,0.0916 0.40069,0.0581 0.79778,0.14204 1.20046,0.18361 0.12095,0.009 0.14728,0.0498 0.20393,-0.0716 0,0 -2.85818,1.97519 -2.85818,1.97519 v 0 c -0.0913,-0.0291 -0.17874,-0.0525 -0.27431,-0.0606 -0.38877,-0.0642 -0.77458,-0.14993 -1.16674,-0.19004 -0.86458,-0.0603 -1.73358,-0.0316 -2.59833,-0.0985 -1.158,-0.0644 -2.31471,-0.18574 -3.47535,-0.1706 -1.33339,-0.002 -2.66678,-0.005 -4.00017,-0.002 -1.44793,0.003 -2.89596,0.009 -4.34363,0.0413 -1.53768,0.0396 -3.0754,0.11294 -4.61374,0.0944 -1.55981,-0.0728 -3.11925,-0.17223 -4.68146,-0.13692 -1.591283,-0.005 -3.182796,-0.01 -4.773445,-0.0627 -1.663506,-0.066 -3.32305,-0.18669 -4.982973,-0.31806 -1.734658,-0.0704 -3.468431,-0.10597 -5.203624,-0.0166 -1.873491,0.0572 -3.748203,0.13096 -5.621177,0.007 -1.96874,-0.0859 -3.937104,-0.14397 -5.907701,-0.15196 -1.935774,-0.0467 -3.870521,-0.13468 -5.806609,-0.1613 -1.740001,0.0338 -3.479166,0.0933 -5.217062,0.19171 -1.459398,0.0494 -2.920142,0.0247 -4.379368,0.088 -1.416038,0.0657 -2.827541,0.18693 -4.238719,0.32593 -1.230281,0.0758 -2.460249,0.13594 -3.692831,0.0728 -0.980887,-0.03 -1.961812,-0.0746 -2.937979,-0.1856 0,0 2.915246,-1.83528 2.915246,-1.83528 z"
       inkscape:connector-curvature="0" />
    <path
       style="opacity:1;fill:#782121;stroke-width:0.79999995;stroke-miterlimit:4;stroke-dasharray:none;stroke-dashoffset:0;paint-order:markers stroke fill"
       id="path21"
       d="m 50.742437,227.56521 c 0.924042,-0.0994 1.851419,-0.15635 2.779468,-0.19068 1.1928,-0.0328 2.386092,-0.0338 3.579209,-0.0346 1.380818,-0.0336 2.757641,0.0904 4.13593,0.15785 1.780448,0.0771 3.562642,0.0878 5.344317,0.0966 2.034385,0.0201 4.06935,-0.0239 6.10304,0.0402 2.107147,0.0554 4.21064,0.18358 6.315343,0.297 2.020602,0.13525 4.037844,0.31771 6.057888,0.46023 1.919541,0.12562 3.84301,0.15275 5.765642,0.16619 1.707128,-0.0339 3.410942,0.0784 5.1157,0.15206 1.496396,0.019 2.98734,0.15333 4.481156,0.23465 1.4777,0.0715 2.95714,0.082 4.4361,0.0914 1.64006,0.0247 3.2812,-0.0292 4.92033,0.0376 1.42679,0.0859 2.8545,0.14509 4.28324,0.17678 1.17739,0.079 2.35265,0.16816 3.52529,0.30347 1.11783,0.12965 2.24216,0.16627 3.36564,0.18802 1.04916,0.0166 2.09369,0.13857 3.14173,0.19433 0.90258,-0.001 1.79591,0.13089 2.69365,0.21041 0.71928,0.0554 1.4271,0.20266 2.14639,0.26671 0.64918,0.0491 1.30041,0.0527 1.95095,0.0554 0.47627,-0.0491 0.92444,0.0292 1.38606,0.13455 0.2734,0.0578 0.5508,0.0854 0.82889,0.10008 0.0743,0.009 0.14773,-0.003 0.2217,-0.007 0.0697,-0.001 0.0369,0.0129 0.0616,-0.0918 0,0 -2.83577,2.01431 -2.83577,2.01431 v 0 c -0.11464,-0.0367 -0.0663,-0.0325 -0.14211,-0.033 -0.0781,-0.001 -0.15426,-0.0164 -0.2318,-0.0249 -0.28072,-0.0358 -0.56018,-0.081 -0.83636,-0.14596 -0.44145,-0.0937 -0.88513,-0.0868 -1.33432,-0.0846 -0.65493,-0.008 -1.31076,-0.018 -1.96325,-0.0838 -0.71358,-0.0799 -1.41928,-0.22453 -2.13619,-0.2709 -0.89013,-0.0897 -1.77896,-0.19315 -2.67405,-0.20835 -1.04311,-0.0641 -2.08397,-0.17947 -3.12938,-0.1887 -1.12921,-0.0293 -2.25864,-0.0765 -3.38156,-0.21349 -1.16284,-0.132 -2.32983,-0.21751 -3.49745,-0.28665 -1.42335,-0.0399 -2.84524,-0.11283 -4.2671,-0.19136 -1.63911,-0.0511 -3.27924,-0.0129 -4.91889,-0.0269 -1.48322,-0.008 -2.966882,-0.0229 -4.44851,-0.1027 -1.489997,-0.0844 -2.977807,-0.20999 -4.470366,-0.23722 -1.69683,-0.0772 -3.392917,-0.1804 -5.092286,-0.15364 -1.923721,-0.0224 -3.848408,-0.0491 -5.76845,-0.1885 -2.016663,-0.14924 -4.031175,-0.32914 -6.049153,-0.45925 -2.102446,-0.11845 -4.204522,-0.23665 -6.309643,-0.29009 -2.036517,-0.0472 -4.073658,-0.0116 -6.110547,-0.0268 -1.793344,-0.009 -3.587323,-0.0146 -5.379509,-0.0907 -1.380363,-0.0666 -2.760161,-0.17124 -4.142959,-0.13353 -1.195482,0.005 -2.391373,0.007 -3.586155,0.0551 -0.944092,0.0464 -1.885158,0.12767 -2.827191,0.20467 0,0 2.893642,-1.8736 2.893642,-1.8736 z"
       inkscape:connector-curvature="0" />
    <path
       style="opacity:1;fill:#782121;stroke-width:0.79999995;stroke-miterlimit:4;stroke-dasharray:none;stroke-dashoffset:0;paint-order:markers stroke fill"
       id="path23"
       d="m 51.427925,209.45814 c 0.957327,0.13451 1.92301,0.181 2.887301,0.21817 1.125428,0.0349 2.25144,0.0364 3.37725,0.0403 1.299862,-0.008 2.600351,0.0319 3.899148,-0.0303 1.575714,-0.0994 3.153335,-0.14914 4.731435,-0.17797 1.752109,-0.0596 3.502088,0.06 5.252266,0.12834 1.900214,0.0878 3.801998,0.17625 5.70036,0.30462 1.902106,0.10815 3.798996,0.2901 5.70104,0.39892 1.801736,0.0522 3.601185,0.13525 5.401413,0.22791 1.730517,0.0873 3.463053,0.10553 5.195184,0.11845 1.55548,0.0794 3.110413,0.16185 4.667265,0.20482 1.430088,0.0328 2.860573,0.0359 4.290923,0.0386 1.50923,0.001 3.01846,0.002 4.52769,7.1e-4 1.37533,-0.0448 2.74645,0.0708 4.11859,0.14714 1.18279,0.0629 2.36713,0.0746 3.55113,0.0832 1.02712,0.007 2.0498,-0.12319 3.07481,-0.18424 0.91534,-0.0495 1.83202,-0.054 2.7483,-0.0614 0.87511,-0.005 1.75023,-2.5e-4 2.62535,0.001 0.93361,0.002 1.86723,0 2.80086,-0.001 0.6116,-2.2e-4 1.22318,-0.007 1.83476,-0.009 0.36587,-0.002 0.73175,-6.7e-4 1.09762,-0.002 0.2842,5.1e-4 0.5684,-6.5e-4 0.85261,-0.002 0.14768,-0.001 0.29536,-0.002 0.44302,-0.001 0.27666,7.4e-4 0.55329,0.005 0.82995,0.007 0.54641,0.003 1.09285,0.002 1.63928,0.001 0.23934,-0.001 0.47866,-0.003 0.71795,-0.008 0,0 -2.91356,1.8865 -2.91356,1.8865 v 0 c -0.23083,-0.005 -0.46168,-0.008 -0.69253,-0.008 -0.54807,-8.5e-4 -1.0962,-0.002 -1.64425,0.001 -0.28312,0.001 -0.56621,0.005 -0.84931,0.007 -0.14616,10e-4 -0.29232,6e-5 -0.43848,-0.001 -0.2818,-0.001 -0.5636,-0.002 -0.8454,-0.002 -0.36341,-0.001 -0.72683,2.9e-4 -1.09025,-0.002 -0.60246,-0.002 -1.2049,-0.009 -1.80737,-0.009 -0.9315,-0.001 -1.86299,-0.003 -2.7945,-0.002 -0.87687,7.4e-4 -1.75375,0.002 -2.63062,0.005 -0.91118,0.005 -1.82268,0.0178 -2.73257,0.0732 -1.02416,0.0666 -2.04778,0.18345 -3.07515,0.15664 -1.18429,-0.0116 -2.36872,-0.0348 -3.55148,-0.10237 -1.3627,-0.0819 -2.72486,-0.18314 -4.09097,-0.1423 -1.51088,-3.2e-4 -3.02177,0.002 -4.532651,0.001 -1.431229,-0.002 -2.862641,-0.005 -4.293419,-0.048 -1.551594,-0.051 -3.101183,-0.14369 -4.652291,-0.20608 -1.732535,-0.0168 -3.465359,-0.0467 -5.196176,-0.13452 -1.798232,-0.0946 -3.596415,-0.16666 -5.395657,-0.23446 -1.899492,-0.11743 -3.794781,-0.2968 -5.694888,-0.40482 -1.90104,-0.11742 -3.803913,-0.21431 -5.706746,-0.29083 -1.75028,-0.0694 -3.500913,-0.17241 -5.252979,-0.10477 -1.58234,0.035 -3.163682,0.0959 -4.74373,0.19425 -1.306772,0.0458 -2.614479,0.0201 -3.921832,0.028 -1.128795,-0.001 -2.257839,-0.007 -3.386037,-0.0494 -0.976774,-0.0408 -1.950577,-0.12357 -2.926305,-0.1772 0,0 2.893646,-1.87358 2.893646,-1.87358 z"
       inkscape:connector-curvature="0" />
    <path
       style="opacity:1;fill:#782121;stroke-width:0.79999995;stroke-miterlimit:4;stroke-dasharray:none;stroke-dashoffset:0;paint-order:markers stroke fill"
       id="path25"
       d="m 72.806769,199.82962 c 0.0793,1.03258 0.0953,2.06096 0.06368,3.09632 -0.03585,1.14972 -0.04813,2.29885 -0.134433,3.44583 -0.08116,0.93686 -0.131635,1.87596 -0.15341,2.81631 -0.01777,0.88097 -0.01856,1.76217 -0.01979,2.64327 -0.05335,0.95848 -0.139525,1.91393 -0.183997,2.87312 -0.07789,0.88515 -0.172511,1.76766 -0.223746,2.65522 -0.0492,0.91486 -0.02937,1.83148 -0.0758,2.74627 -0.05904,1.0841 -0.16364,2.16269 -0.275593,3.24172 -0.09222,0.95533 -0.123256,1.91448 -0.208869,2.87039 -0.121753,1.1538 -0.23479,2.3088 -0.356336,3.46272 -0.121793,1.25373 -0.240869,2.50774 -0.356607,3.76219 -0.08951,1.16439 -0.222741,2.3246 -0.370186,3.48223 -0.118578,1.10063 -0.212674,2.20377 -0.320232,3.30582 -0.07165,1.06852 -0.144283,2.13552 -0.238462,3.20228 -0.04407,0.98742 -0.164363,1.96717 -0.254244,2.95034 -0.06483,0.78775 -0.07298,1.57683 -0.156464,2.36281 -0.09234,0.83196 -0.123432,1.66818 -0.216829,2.49998 -0.0947,0.76444 -0.127687,1.53391 -0.224883,2.2979 -0.0922,0.64439 -0.138939,1.29418 -0.164153,1.94492 -0.02165,0.57625 -0.01556,1.15308 -0.01828,1.72964 -3.21e-4,0.55781 0.0025,1.11563 0.0039,1.67343 0.02343,0.40875 0.0031,0.80567 -0.08381,1.20401 -0.09925,0.43109 -0.120401,0.8751 -0.135822,1.31661 -0.01117,0.52014 -0.01314,1.04053 -0.0077,1.56077 0.03107,0.35398 -0.07321,0.68866 -0.147851,1.02769 -0.06836,0.47763 -0.07925,0.95967 -0.140667,1.43882 -0.0537,0.4317 -0.115727,0.86419 -0.135164,1.29964 0.01038,0.0341 0.02075,0.0684 0.03114,0.10248 0,0 -3.24849,1.14926 -3.24849,1.14926 v 0 c 0.01503,0.0282 0.03007,0.0565 0.04511,0.0848 0.09228,-0.43017 0.08299,-0.88163 0.16489,-1.31418 0.06532,-0.48217 0.08618,-0.9611 0.114013,-1.44663 0.04716,-0.32841 0.189451,-0.63489 0.180791,-0.96885 0.0047,-0.52436 0.0013,-1.04879 0.01038,-1.57311 0.0085,-0.46026 0.01391,-0.92329 0.09914,-1.37664 0.08047,-0.3796 0.164712,-0.73765 0.122457,-1.13368 6.42e-4,-0.55853 0.0023,-1.11708 6.42e-4,-1.6756 -0.0031,-0.58086 9.64e-4,-1.16176 0.01129,-1.74252 0.02563,-0.66333 0.07503,-1.32527 0.163132,-1.98292 0.107406,-0.76256 0.144527,-1.5299 0.232721,-2.2951 0.103783,-0.82943 0.137493,-1.6628 0.216171,-2.49511 0.08496,-0.78561 0.108802,-1.57232 0.164036,-2.36084 0.09547,-0.98412 0.23141,-1.96332 0.269223,-2.95281 0.0862,-1.06866 0.184199,-2.13479 0.235301,-3.20635 0.108938,-1.10645 0.216039,-2.2123 0.322612,-3.31876 0.148896,-1.15453 0.288401,-2.31107 0.380189,-3.47242 0.116831,-1.25616 0.243004,-2.51075 0.355564,-3.76733 0.124305,-1.14888 0.220376,-2.30167 0.342759,-3.4505 0.08765,-0.95804 0.111402,-1.91881 0.209211,-2.87594 0.112044,-1.07352 0.234512,-2.14458 0.280434,-3.22451 0.05595,-0.91226 0.01587,-1.82735 0.0631,-2.74051 0.04688,-0.88837 0.138059,-1.7717 0.234465,-2.65539 0.04015,-0.95403 0.114681,-1.90487 0.187241,-2.85661 -0.0013,-0.88339 -0.0052,-1.76695 0.01178,-2.65022 0.02677,-0.94905 0.06843,-1.89717 0.162434,-2.84194 0.0959,-1.14179 0.114341,-2.28485 0.14591,-3.43043 0.028,-1.02569 0.04431,-2.04883 -0.103546,-3.06718 0,0 3.131525,-1.37053 3.131525,-1.37053 z"
       inkscape:connector-curvature="0" />
    <path
       style="opacity:1;fill:#782121;stroke-width:0.79999995;stroke-miterlimit:4;stroke-dasharray:none;stroke-dashoffset:0;paint-order:markers stroke fill"
       id="path27"
       d="m 95.19737,199.85936 c -0.01093,1.35194 -0.103952,2.70053 -0.166367,4.05046 -0.12323,1.43217 -0.188239,2.86891 -0.293934,4.30226 -0.129788,1.33045 -0.19011,2.66581 -0.225183,4.00223 -0.02623,1.27819 -0.02587,2.55683 -0.02417,3.83526 0.03085,1.21253 -0.04518,2.42311 -0.158728,3.62893 -0.128234,1.39081 -0.298268,2.77645 -0.407023,4.16923 -0.07349,1.2544 -0.204283,2.50339 -0.275534,3.75808 -0.02283,1.12663 -0.135533,2.24716 -0.204841,3.371 -0.06692,1.15002 -0.07882,2.30246 -0.08585,3.4543 -0.0024,1.02065 -0.08806,2.04156 -0.189577,3.05617 -0.08526,0.9759 -0.248573,1.94068 -0.366521,2.9121 -0.08756,0.77607 -0.09885,1.55691 -0.180429,2.33351 -0.07214,0.87886 -0.203712,1.75002 -0.292052,2.62696 -0.07178,0.80375 -0.07979,1.60965 -0.164315,2.41211 -0.113065,0.86572 -0.115129,1.74066 -0.182422,2.61003 -0.09133,0.81 -0.155632,1.62222 -0.191507,2.43696 0.01093,0.78078 -0.08926,1.55351 -0.159007,2.32878 -0.05162,0.63925 -0.05951,1.27888 -0.142905,1.91476 -0.09024,0.56928 -0.13569,1.14363 -0.158304,1.71981 -0.01651,0.4762 0.0037,0.95302 -0.03546,1.42785 -0.08987,0.55474 -0.131863,1.11585 -0.20184,1.67316 -0.07809,0.48006 -0.158317,0.95986 -0.198756,1.44539 -0.02598,0.33154 -0.03049,0.66459 -0.02952,0.99712 -9.6e-4,0.24808 0.0048,0.4961 0.0037,0.74418 0.02222,0.25771 -0.07956,0.49006 -0.150969,0.72934 -0.02611,0.13283 -0.06012,0.26754 -0.06157,0.40407 -0.02406,0.0423 -0.01712,0.0964 -0.01651,0.144 0,0 -3.15819,1.39194 -3.15819,1.39194 v 0 c -0.0024,-0.0728 -0.0024,-0.14577 -0.01262,-0.21793 0.03499,-0.13459 0.04045,-0.28341 0.06995,-0.42205 0.03813,-0.22897 0.143001,-0.43164 0.179192,-0.64951 -0.0024,-0.24939 0.0024,-0.49876 9.59e-4,-0.74815 0.0024,-0.34292 1.2e-5,-0.68617 0.02283,-1.02852 0.04396,-0.49459 0.113186,-0.9847 0.205958,-1.47199 0.09084,-0.54831 0.09303,-1.11067 0.200906,-1.65776 0.06352,-0.46491 0.01689,-0.93695 0.04979,-1.40526 0.01979,-0.58788 0.04809,-1.17584 0.146535,-1.75609 0.09254,-0.63154 0.112943,-1.26555 0.160185,-1.90248 0.06911,-0.77017 0.177103,-1.53678 0.167886,-2.31211 0.02817,-0.82143 0.09109,-1.64002 0.189357,-2.4556 0.08526,-0.86918 0.0685,-1.74663 0.175209,-2.61456 0.08646,-0.80292 0.110757,-1.60726 0.170921,-2.41281 0.08914,-0.87667 0.218151,-1.74755 0.28525,-2.62653 0.08563,-0.77953 0.10043,-1.5608 0.18229,-2.34072 0.12199,-0.97165 0.297734,-1.93456 0.382332,-2.91141 0.11015,-1.00216 0.180868,-2.01461 0.202716,-3.02277 0.01093,-1.15934 0.03121,-2.31881 0.08914,-3.47677 0.06571,-1.12302 0.167559,-2.24314 0.199717,-3.36803 0.07505,-1.26012 0.211836,-2.51389 0.294249,-3.77312 0.102253,-1.39386 0.271151,-2.77977 0.393774,-4.17159 0.116586,-1.19382 0.188435,-2.39382 0.167545,-3.59444 0.0024,-1.2823 0.0024,-2.56469 0.02757,-3.8468 0.03291,-1.34249 0.08768,-2.68498 0.218964,-4.02135 0.122963,-1.42979 0.172768,-2.86651 0.31056,-4.2955 0.05854,-1.33472 0.167642,-2.67065 0.108935,-4.00731 0,0 3.127633,-1.36883 3.127633,-1.36883 z"
       inkscape:connector-curvature="0" />
    <path
       style="opacity:1;fill:#782121;stroke-width:0.79999995;stroke-miterlimit:4;stroke-dasharray:none;stroke-dashoffset:0;paint-order:markers stroke fill"
       id="path29"
       d="m 123.26294,200.10756 c -0.28827,1.19437 -0.44873,2.41167 -0.55555,3.63707 -0.0713,1.46584 -0.18005,2.92921 -0.25729,4.39473 -0.0703,1.48622 -0.0845,2.97452 -0.0924,4.46231 -0.006,1.46602 -6.3e-4,2.93204 0.002,4.39804 0.0305,1.35846 -0.0182,2.71313 -0.0951,4.06866 -0.0443,1.29406 -0.17178,2.58188 -0.25622,3.87316 -0.14228,1.34482 -0.21048,2.69583 -0.31211,4.04406 -0.12627,1.43762 -0.18176,2.88003 -0.28825,4.31917 -0.0813,1.31429 -0.17463,2.6283 -0.32672,3.93581 -0.12655,1.17149 -0.29688,2.33585 -0.47901,3.49885 -0.22846,1.20838 -0.38285,2.43012 -0.58407,3.64349 -0.19761,1.15897 -0.41268,2.31509 -0.64572,3.46673 -0.2141,1.10651 -0.36429,2.22734 -0.49631,3.34794 -0.13569,1.04355 -0.3132,2.08057 -0.49573,3.11596 -0.14941,0.85335 -0.27894,1.71058 -0.40872,2.56758 -0.0546,0.61075 -0.17516,1.20969 -0.27489,1.81295 -0.0565,0.57103 -0.16268,1.13412 -0.23713,1.70245 -0.0948,0.52196 -0.19151,1.04393 -0.29495,1.56405 -0.12441,0.50305 -0.19228,1.01659 -0.23023,1.53405 -0.0492,0.43767 -0.1557,0.86346 -0.20775,1.30076 -0.0782,0.43845 -0.17078,0.87225 -0.22594,1.31507 -0.0355,0.30574 -0.14337,0.59282 -0.21404,0.88968 -0.0143,0.0606 -0.0254,0.12204 -0.0393,0.18277 0,0 -3.18624,1.3284 -3.18624,1.3284 v 0 c 0.009,-0.0717 0.0248,-0.14253 0.0413,-0.21291 0.0677,-0.28986 0.15814,-0.56922 0.24333,-0.85368 0.0459,-0.44253 0.11816,-0.88204 0.2293,-1.31182 0.0378,-0.4378 0.11999,-0.86366 0.21796,-1.29048 0.0315,-0.53337 0.0864,-1.06546 0.2113,-1.58472 0.11658,-0.50872 0.18543,-1.02996 0.31422,-1.53663 0.0664,-0.57313 0.18131,-1.13652 0.22583,-1.712 0.0932,-0.6076 0.24471,-1.20296 0.29372,-1.81805 0.13211,-0.86284 0.26934,-1.72447 0.41977,-2.5837 0.19248,-1.02771 0.3598,-2.06123 0.51163,-3.09646 0.12725,-1.13163 0.2845,-2.26113 0.48749,-3.38029 0.24401,-1.14623 0.44652,-2.30231 0.65405,-3.45637 0.21485,-1.20913 0.35022,-2.43206 0.58404,-3.63768 0.18201,-1.1594 0.35842,-2.31923 0.48207,-3.48757 0.17387,-1.30228 0.26885,-2.61506 0.35185,-3.92685 0.11016,-1.43859 0.1632,-2.88002 0.28353,-4.31787 0.10628,-1.34554 0.15588,-2.69596 0.31042,-4.03747 0.0767,-1.2913 0.21092,-2.57754 0.25378,-3.87099 0.0844,-1.34956 0.14549,-2.69756 0.10942,-4.05081 10e-4,-1.4681 0.003,-2.93617 0.007,-4.40425 0.007,-1.49242 0.0109,-2.98546 0.0819,-4.47642 0.0749,-1.46896 0.19184,-2.93485 0.25189,-4.40462 0.0957,-1.22822 0.24773,-2.446 0.47745,-3.65458 0,0 3.15828,-1.29752 3.15828,-1.29752 z"
       inkscape:connector-curvature="0" />
    <path
       style="opacity:1;fill:#782121;stroke-width:0.79999995;stroke-miterlimit:4;stroke-dasharray:none;stroke-dashoffset:0;paint-order:markers stroke fill"
       id="path31"
       d="m 138.02764,248.81082 c 0.83129,-0.002 1.65984,-0.11754 2.48942,-0.17776 0.12072,-0.0208 0.24152,-0.0417 0.36227,-0.0626 0,0 -2.85027,1.90095 -2.85027,1.90095 v 0 c -0.12312,0.0135 -0.24625,0.0273 -0.36939,0.0407 -0.84143,0.0632 -1.68132,0.16752 -2.52567,0.17215 0,0 2.89364,-1.8736 2.89364,-1.8736 z"
       inkscape:connector-curvature="0" />
    <path
       style="opacity:1;fill:#782121;stroke-width:0.79999995;stroke-miterlimit:4;stroke-dasharray:none;stroke-dashoffset:0;paint-order:markers stroke fill"
       id="path33"
       d="m 138.74302,229.6393 c 0.45881,0.21732 0.94102,0.29081 1.43591,0.33877 0,0 -2.89155,1.82294 -2.89155,1.82294 v 0 c -0.5133,-0.0784 -1.01258,-0.2015 -1.49776,-0.4002 0,0 2.9534,-1.76151 2.9534,-1.76151 z"
       inkscape:connector-curvature="0" />
    <path
       style="opacity:1;fill:#782121;stroke-width:0.79999995;stroke-miterlimit:4;stroke-dasharray:none;stroke-dashoffset:0;paint-order:markers stroke fill"
       id="path35"
       d="m 138.95718,211.82792 c 0.68887,-0.0668 1.37924,-0.11457 2.06995,-0.15399 0,0 -2.86099,1.87523 -2.86099,1.87523 v 0 c -0.69444,0.0407 -1.38898,0.0891 -2.07905,0.18358 0,0 2.87009,-1.90482 2.87009,-1.90482 z"
       inkscape:connector-curvature="0" />
    <path
       style="opacity:1;fill:#782121;stroke-width:0.79999995;stroke-miterlimit:4;stroke-dasharray:none;stroke-dashoffset:0;paint-order:markers stroke fill"
       id="path37"
       d="m 121.33273,198.03365 c 0.15652,-0.72814 0.2643,-1.46416 0.3427,-2.20577 0,0 3.11636,-1.32164 3.11636,-1.32164 v 0 c -0.0761,0.73613 -0.1608,1.47177 -0.30797,2.1966 0,0 -3.15109,1.33081 -3.15109,1.33081 z"
       inkscape:connector-curvature="0" />
    <path
       style="opacity:1;fill:#782121;stroke-width:0.79999995;stroke-miterlimit:4;stroke-dasharray:none;stroke-dashoffset:0;paint-order:markers stroke fill"
       id="path39"
       d="m 91.898135,197.02838 c 0.297273,-0.83575 0.521292,-1.70035 0.687354,-2.57529 0,0 3.131132,-1.29557 3.131132,-1.29557 v 0 c -0.162433,0.88665 -0.390979,1.75589 -0.640658,2.61918 0,0 -3.177828,1.25168 -3.177828,1.25168 z"
       inkscape:connector-curvature="0" />
    <path
       style="opacity:1;fill:#782121;stroke-width:0.79999995;stroke-miterlimit:4;stroke-dasharray:none;stroke-dashoffset:0;paint-order:markers stroke fill"
       id="path41"
       d="m 69.6733,197.08865 c 0.0672,-0.74881 0.133392,-1.49728 0.177487,-2.24806 0,0 3.11161,-1.33754 3.11161,-1.33754 v 0 c -0.04507,0.73835 -0.101317,1.47562 -0.153682,2.21336 0,0 -3.135415,1.37224 -3.135415,1.37224 z"
       inkscape:connector-curvature="0" />
    <path
       style="opacity:1;fill:#782121;stroke-width:0.79999995;stroke-miterlimit:4;stroke-dasharray:none;stroke-dashoffset:0;paint-order:markers stroke fill"
       id="path43"
       d="m 47.5741,198.45353 c 0.310109,-0.8833 0.458291,-1.81241 0.554376,-2.74492 0.01154,-0.16041 0.0231,-0.32081 0.03467,-0.48121 0,0 3.109917,-1.33378 3.109917,-1.33378 v 0 c -0.01038,0.16382 -0.02059,0.32763 -0.03088,0.49144 -0.08646,0.94984 -0.231186,1.89185 -0.498359,2.80584 0,0 -3.169714,1.26263 -3.169714,1.26263 z"
       inkscape:connector-curvature="0" />
    <path
       style="opacity:1;fill:#782121;stroke-width:0.79999995;stroke-miterlimit:4;stroke-dasharray:none;stroke-dashoffset:0;paint-order:markers stroke fill"
       id="path45"
       d="m 137.79915,266.19361 c 0.37705,0.021 0.74918,0.005 1.12461,-0.0304 0,0 -2.85616,1.87677 -2.85616,1.87677 v 0 c -0.3874,0.0181 -0.77428,0.0268 -1.1621,0.0274 0,0 2.89365,-1.87358 2.89365,-1.87358 z"
       inkscape:connector-curvature="0" />
    <path
       style="opacity:1;fill:#782121;stroke-width:0.79999995;stroke-miterlimit:4;stroke-dasharray:none;stroke-dashoffset:0;paint-order:markers stroke fill"
       id="path47"
       d="m 144.44107,266.14911 c 0.60586,-0.024 1.20318,-0.11561 1.80187,-0.20994 0,0 -2.83604,1.89504 -2.83604,1.89504 v 0 c -0.61075,0.0872 -1.22303,0.15246 -1.83593,0.21971 0,0 2.8701,-1.90481 2.8701,-1.90481 z"
       inkscape:connector-curvature="0" />
    <path
       style="opacity:1;fill:#782121;stroke-width:0.79999995;stroke-miterlimit:4;stroke-dasharray:none;stroke-dashoffset:0;paint-order:markers stroke fill"
       id="path49"
       d="m 145.82203,248.81199 c 0.52273,0.01 1.04558,0.008 1.56837,0.007 0,0 -2.87126,1.85911 -2.87126,1.85911 v 0 c -0.52904,-0.001 -1.05816,-0.003 -1.58718,0.007 0,0 2.89007,-1.87125 2.89007,-1.87125 z"
       inkscape:connector-curvature="0" />
    <path
       style="opacity:1;fill:#782121;stroke-width:0.79999995;stroke-miterlimit:4;stroke-dasharray:none;stroke-dashoffset:0;paint-order:markers stroke fill"
       id="path51"
       d="m 144.87125,228.24174 c 0.45493,-0.0472 0.2151,-0.0241 0.71963,-0.0684 0,0 -2.85265,1.88701 -2.85265,1.88701 v 0 c -0.51476,0.0592 -0.26877,0.028 -0.73813,0.0927 0,0 2.87115,-1.91131 2.87115,-1.91131 z"
       inkscape:connector-curvature="0" />
    <path
       style="opacity:1;fill:#782121;stroke-width:0.79999995;stroke-miterlimit:4;stroke-dasharray:none;stroke-dashoffset:0;paint-order:markers stroke fill"
       id="path53"
       d="m 145.14614,210.47092 c 0.56465,0.0719 1.13236,0.11055 1.69988,0.14663 0,0 -2.87817,1.8361 -2.87817,1.8361 v 0 c -0.57734,-0.0438 -1.15431,-0.0926 -1.73097,-0.14552 0,0 2.90926,-1.83721 2.90926,-1.83721 z"
       inkscape:connector-curvature="0" />
    <text
       xml:space="preserve"
       style="font-style:normal;font-weight:normal;font-size:15.82539845px;line-height:1.25;font-family:sans-serif;letter-spacing:0px;word-spacing:0px;fill:#000000;fill-opacity:1;stroke:none;stroke-width:0.26458329"
       x="107.88802"
       y="359.10095"
       id="text57"
       transform="scale(1.2919677,0.77401318)"><tspan
         sodipodi:role="line"
         id="tspan55"
         x="107.88802"
         y="359.10095"
         style="stroke-width:0.26458329">$l$</tspan></text>
    <text
       xml:space="preserve"
       style="font-style:normal;font-weight:normal;font-size:13.6795969px;line-height:1.25;font-family:sans-serif;letter-spacing:0px;word-spacing:0px;fill:#000000;fill-opacity:1;stroke:none;stroke-width:0.26458332"
       x="29.881624"
       y="193.09499"
       id="text61"
       transform="scale(0.96929853,1.0316739)"><tspan
         sodipodi:role="line"
         id="tspan59"
         x="29.881624"
         y="193.09499"
         style="stroke-width:0.26458332">$k$</tspan></text>
    <text
       xml:space="preserve"
       style="font-style:normal;font-weight:normal;font-size:12.48256016px;line-height:1.25;font-family:sans-serif;letter-spacing:0px;word-spacing:0px;fill:#000000;fill-opacity:1;stroke:none;stroke-width:0.26458326"
       x="193.75269"
       y="209.82454"
       id="text65"
       transform="scale(0.71491288,1.3987718)"><tspan
         sodipodi:role="line"
         id="tspan63"
         x="193.75269"
         y="209.82454"
         style="stroke-width:0.26458326">$, W \varphi_l \rangle$</tspan></text>
    <text
       xml:space="preserve"
       style="font-style:normal;font-weight:normal;font-size:14.27323914px;line-height:1.25;font-family:sans-serif;letter-spacing:0px;word-spacing:0px;fill:#000000;fill-opacity:1;stroke:none;stroke-width:0.26458329"
       x="31.677683"
       y="199.72966"
       id="text58"
       transform="scale(0.91964931,1.087371)"><tspan
         sodipodi:role="line"
         id="tspan56"
         x="31.677683"
         y="199.72966"
         style="stroke-width:0.26458329">$\langle \varphi_k, $</tspan></text>
    <ellipse
       style="opacity:1;fill:#0000ff;stroke-width:0.79999995;stroke-miterlimit:4;stroke-dasharray:none;stroke-dashoffset:0;paint-order:markers stroke fill"
       id="path117"
       cx="46.906242"
       cy="265.56113"
       rx="3.5416775"
       ry="3.742126" />
    <path
       style="fill:#0000ff;stroke:#0000ff;stroke-width:0.99999982;stroke-linecap:butt;stroke-linejoin:miter;stroke-miterlimit:4;stroke-dasharray:none;stroke-opacity:1"
       d="m 47.381,249.48633 -5.445043,5.75321"
       id="path932"
       inkscape:connector-curvature="0" />
    <path
       style="fill:none;stroke:#0000ff;stroke-width:0.99999982;stroke-linecap:butt;stroke-linejoin:miter;stroke-miterlimit:4;stroke-dasharray:none;stroke-opacity:1"
       d="m 47.381,249.48633 5.084544,5.37232 -0.670158,-0.18973"
       id="path934"
       inkscape:connector-curvature="0" />
    <path
       style="fill:none;stroke:none;stroke-width:0.99999982;stroke-linecap:butt;stroke-linejoin:miter;stroke-miterlimit:4;stroke-dasharray:none;stroke-opacity:1"
       d="M 47.381,249.48633 V 261.819 l -0.408746,0.43188"
       id="path936"
       inkscape:connector-curvature="0" />
    <path
       style="fill:none;stroke:none;stroke-width:0;stroke-linecap:butt;stroke-linejoin:miter;stroke-miterlimit:4;stroke-dasharray:none;stroke-opacity:1"
       d="m 47.381,249.48633 -0.408746,12.76455 v 0"
       id="path938"
       inkscape:connector-curvature="0" />
    <path
       style="fill:none;stroke:#0000ff;stroke-width:0.99999982;stroke-linecap:butt;stroke-linejoin:miter;stroke-miterlimit:4;stroke-dasharray:none;stroke-opacity:1"
       d="m 47.381,249.48633 -0.408746,12.76455 v 0"
       id="path940"
       inkscape:connector-curvature="0" />
  </g>
</svg>
